<mxfile host="app.diagrams.net" modified="2021-01-07T10:41:46.290Z" agent="5.0 (Macintosh; Intel Mac OS X 10_15_7) AppleWebKit/537.36 (KHTML, like Gecko) Chrome/87.0.4280.88 Safari/537.36" etag="ofouFCx6TwvBkE9R1TOI" version="14.1.2" type="github">
  <diagram id="gx_X--Z0YCD5lvOhmVnY" name="Page-1">
    <mxGraphModel dx="946" dy="566" grid="1" gridSize="10" guides="1" tooltips="1" connect="1" arrows="1" fold="1" page="1" pageScale="1" pageWidth="1169" pageHeight="827" math="0" shadow="0">
      <root>
        <mxCell id="0" />
        <mxCell id="1" parent="0" />
        <mxCell id="pmLFDc_VPlstKLxGdKXN-1" value="" style="ellipse;whiteSpace=wrap;html=1;" vertex="1" parent="1">
          <mxGeometry x="410" y="120" width="40" height="40" as="geometry" />
        </mxCell>
        <mxCell id="pmLFDc_VPlstKLxGdKXN-2" value="" style="ellipse;whiteSpace=wrap;html=1;" vertex="1" parent="1">
          <mxGeometry x="330" y="200" width="40" height="40" as="geometry" />
        </mxCell>
        <mxCell id="pmLFDc_VPlstKLxGdKXN-4" value="" style="endArrow=classic;html=1;entryX=1;entryY=0;entryDx=0;entryDy=0;exitX=0;exitY=1;exitDx=0;exitDy=0;" edge="1" parent="1" source="pmLFDc_VPlstKLxGdKXN-1" target="pmLFDc_VPlstKLxGdKXN-2">
          <mxGeometry width="50" height="50" relative="1" as="geometry">
            <mxPoint x="470" y="360" as="sourcePoint" />
            <mxPoint x="520" y="310" as="targetPoint" />
          </mxGeometry>
        </mxCell>
        <mxCell id="pmLFDc_VPlstKLxGdKXN-5" value="" style="ellipse;whiteSpace=wrap;html=1;" vertex="1" parent="1">
          <mxGeometry x="450" y="200" width="40" height="40" as="geometry" />
        </mxCell>
        <mxCell id="pmLFDc_VPlstKLxGdKXN-6" value="" style="endArrow=classic;html=1;entryX=0.325;entryY=0;entryDx=0;entryDy=0;exitX=1;exitY=1;exitDx=0;exitDy=0;entryPerimeter=0;" edge="1" parent="1" source="pmLFDc_VPlstKLxGdKXN-1" target="pmLFDc_VPlstKLxGdKXN-5">
          <mxGeometry width="50" height="50" relative="1" as="geometry">
            <mxPoint x="470" y="360" as="sourcePoint" />
            <mxPoint x="520" y="310" as="targetPoint" />
          </mxGeometry>
        </mxCell>
        <mxCell id="pmLFDc_VPlstKLxGdKXN-7" value="" style="ellipse;whiteSpace=wrap;html=1;" vertex="1" parent="1">
          <mxGeometry x="530" y="200" width="40" height="40" as="geometry" />
        </mxCell>
        <mxCell id="pmLFDc_VPlstKLxGdKXN-8" value="" style="endArrow=classic;html=1;exitX=1;exitY=0.7;exitDx=0;exitDy=0;exitPerimeter=0;" edge="1" parent="1" source="pmLFDc_VPlstKLxGdKXN-1" target="pmLFDc_VPlstKLxGdKXN-7">
          <mxGeometry width="50" height="50" relative="1" as="geometry">
            <mxPoint x="470" y="360" as="sourcePoint" />
            <mxPoint x="520" y="310" as="targetPoint" />
          </mxGeometry>
        </mxCell>
        <mxCell id="pmLFDc_VPlstKLxGdKXN-9" value="" style="ellipse;whiteSpace=wrap;html=1;" vertex="1" parent="1">
          <mxGeometry x="290" y="280" width="40" height="40" as="geometry" />
        </mxCell>
        <mxCell id="pmLFDc_VPlstKLxGdKXN-10" value="" style="ellipse;whiteSpace=wrap;html=1;" vertex="1" parent="1">
          <mxGeometry x="370" y="280" width="40" height="40" as="geometry" />
        </mxCell>
        <mxCell id="pmLFDc_VPlstKLxGdKXN-11" value="" style="endArrow=classic;html=1;entryX=0.5;entryY=0;entryDx=0;entryDy=0;exitX=0.5;exitY=1;exitDx=0;exitDy=0;" edge="1" parent="1" source="pmLFDc_VPlstKLxGdKXN-2" target="pmLFDc_VPlstKLxGdKXN-9">
          <mxGeometry width="50" height="50" relative="1" as="geometry">
            <mxPoint x="470" y="360" as="sourcePoint" />
            <mxPoint x="520" y="310" as="targetPoint" />
          </mxGeometry>
        </mxCell>
        <mxCell id="pmLFDc_VPlstKLxGdKXN-12" value="" style="endArrow=classic;html=1;exitX=0.5;exitY=1;exitDx=0;exitDy=0;entryX=0.5;entryY=0;entryDx=0;entryDy=0;" edge="1" parent="1" source="pmLFDc_VPlstKLxGdKXN-2" target="pmLFDc_VPlstKLxGdKXN-10">
          <mxGeometry width="50" height="50" relative="1" as="geometry">
            <mxPoint x="470" y="360" as="sourcePoint" />
            <mxPoint x="520" y="310" as="targetPoint" />
          </mxGeometry>
        </mxCell>
        <mxCell id="pmLFDc_VPlstKLxGdKXN-13" value="" style="ellipse;whiteSpace=wrap;html=1;" vertex="1" parent="1">
          <mxGeometry x="450" y="280" width="40" height="40" as="geometry" />
        </mxCell>
        <mxCell id="pmLFDc_VPlstKLxGdKXN-14" value="" style="endArrow=classic;html=1;entryX=0.5;entryY=0;entryDx=0;entryDy=0;exitX=0.5;exitY=1;exitDx=0;exitDy=0;" edge="1" parent="1" source="pmLFDc_VPlstKLxGdKXN-5" target="pmLFDc_VPlstKLxGdKXN-13">
          <mxGeometry width="50" height="50" relative="1" as="geometry">
            <mxPoint x="470" y="360" as="sourcePoint" />
            <mxPoint x="520" y="310" as="targetPoint" />
          </mxGeometry>
        </mxCell>
        <mxCell id="pmLFDc_VPlstKLxGdKXN-20" style="edgeStyle=orthogonalEdgeStyle;rounded=0;orthogonalLoop=1;jettySize=auto;html=1;exitX=0;exitY=0.5;exitDx=0;exitDy=0;entryX=1;entryY=0.5;entryDx=0;entryDy=0;dashed=1;strokeColor=#66B2FF;" edge="1" parent="1" source="pmLFDc_VPlstKLxGdKXN-15" target="pmLFDc_VPlstKLxGdKXN-1">
          <mxGeometry relative="1" as="geometry" />
        </mxCell>
        <mxCell id="pmLFDc_VPlstKLxGdKXN-15" value="&lt;font style=&quot;font-size: 16px&quot;&gt;Root&lt;/font&gt;" style="text;html=1;fillColor=none;align=center;verticalAlign=middle;whiteSpace=wrap;rounded=0;dashed=1;strokeColor=#66B2FF;strokeWidth=2;" vertex="1" parent="1">
          <mxGeometry x="620" y="125" width="70" height="30" as="geometry" />
        </mxCell>
        <mxCell id="pmLFDc_VPlstKLxGdKXN-18" style="edgeStyle=orthogonalEdgeStyle;rounded=0;orthogonalLoop=1;jettySize=auto;html=1;exitX=0;exitY=0.5;exitDx=0;exitDy=0;entryX=1;entryY=0.5;entryDx=0;entryDy=0;dashed=1;strokeColor=#66B2FF;" edge="1" parent="1" source="pmLFDc_VPlstKLxGdKXN-17" target="pmLFDc_VPlstKLxGdKXN-7">
          <mxGeometry relative="1" as="geometry" />
        </mxCell>
        <mxCell id="pmLFDc_VPlstKLxGdKXN-17" value="&lt;font style=&quot;font-size: 16px&quot;&gt;Leaf&lt;/font&gt;" style="text;html=1;fillColor=none;align=center;verticalAlign=middle;whiteSpace=wrap;rounded=0;dashed=1;strokeColor=#66B2FF;strokeWidth=2;" vertex="1" parent="1">
          <mxGeometry x="620" y="205" width="70" height="30" as="geometry" />
        </mxCell>
        <mxCell id="pmLFDc_VPlstKLxGdKXN-25" style="edgeStyle=orthogonalEdgeStyle;rounded=0;orthogonalLoop=1;jettySize=auto;html=1;exitX=1;exitY=0.5;exitDx=0;exitDy=0;dashed=1;strokeColor=#66B2FF;" edge="1" parent="1" source="pmLFDc_VPlstKLxGdKXN-21">
          <mxGeometry relative="1" as="geometry">
            <mxPoint x="330" y="215" as="targetPoint" />
          </mxGeometry>
        </mxCell>
        <mxCell id="pmLFDc_VPlstKLxGdKXN-21" value="&lt;span style=&quot;color: rgb(32 , 33 , 34) ; font-family: sans-serif ; background-color: rgb(255 , 255 , 255)&quot;&gt;&lt;font style=&quot;font-size: 16px&quot;&gt;Parent&lt;/font&gt;&lt;/span&gt;" style="text;html=1;fillColor=none;align=center;verticalAlign=middle;whiteSpace=wrap;rounded=0;dashed=1;strokeColor=#66B2FF;strokeWidth=2;" vertex="1" parent="1">
          <mxGeometry x="160" y="200" width="70" height="30" as="geometry" />
        </mxCell>
        <mxCell id="pmLFDc_VPlstKLxGdKXN-26" style="edgeStyle=orthogonalEdgeStyle;rounded=0;orthogonalLoop=1;jettySize=auto;html=1;exitX=1;exitY=0.5;exitDx=0;exitDy=0;entryX=0;entryY=0.5;entryDx=0;entryDy=0;dashed=1;strokeColor=#66B2FF;" edge="1" parent="1" source="pmLFDc_VPlstKLxGdKXN-22" target="pmLFDc_VPlstKLxGdKXN-9">
          <mxGeometry relative="1" as="geometry" />
        </mxCell>
        <mxCell id="pmLFDc_VPlstKLxGdKXN-22" value="&lt;font style=&quot;font-size: 16px&quot;&gt;Children&lt;/font&gt;" style="text;html=1;fillColor=none;align=center;verticalAlign=middle;whiteSpace=wrap;rounded=0;dashed=1;strokeColor=#66B2FF;strokeWidth=2;" vertex="1" parent="1">
          <mxGeometry x="160" y="285" width="70" height="30" as="geometry" />
        </mxCell>
        <mxCell id="pmLFDc_VPlstKLxGdKXN-27" value="" style="endArrow=classic;startArrow=classic;html=1;dashed=1;strokeColor=#66B2FF;entryX=0.5;entryY=1;entryDx=0;entryDy=0;exitX=0.5;exitY=0;exitDx=0;exitDy=0;" edge="1" parent="1" source="pmLFDc_VPlstKLxGdKXN-22" target="pmLFDc_VPlstKLxGdKXN-21">
          <mxGeometry width="50" height="50" relative="1" as="geometry">
            <mxPoint x="470" y="360" as="sourcePoint" />
            <mxPoint x="520" y="310" as="targetPoint" />
          </mxGeometry>
        </mxCell>
        <mxCell id="pmLFDc_VPlstKLxGdKXN-28" value="&lt;font style=&quot;font-size: 20px&quot;&gt;Tree&lt;/font&gt;" style="text;html=1;fillColor=none;align=center;verticalAlign=middle;whiteSpace=wrap;rounded=0;strokeColor=#000000;" vertex="1" parent="1">
          <mxGeometry x="350" y="70" width="160" height="30" as="geometry" />
        </mxCell>
        <mxCell id="pmLFDc_VPlstKLxGdKXN-29" value="&lt;span style=&quot;color: rgba(0 , 0 , 0 , 0.84) ; font-family: , sans-serif ; text-align: justify ; background-color: rgb(255 , 255 , 255)&quot;&gt;&lt;font style=&quot;font-size: 20px&quot;&gt;Binary Tree&lt;/font&gt;&lt;/span&gt;" style="rounded=0;whiteSpace=wrap;html=1;strokeColor=#000000;strokeWidth=1;" vertex="1" parent="1">
          <mxGeometry x="320" y="410" width="200" height="34" as="geometry" />
        </mxCell>
        <mxCell id="pmLFDc_VPlstKLxGdKXN-30" value="" style="ellipse;whiteSpace=wrap;html=1;" vertex="1" parent="1">
          <mxGeometry x="400" y="480" width="40" height="40" as="geometry" />
        </mxCell>
        <mxCell id="pmLFDc_VPlstKLxGdKXN-31" value="" style="ellipse;whiteSpace=wrap;html=1;" vertex="1" parent="1">
          <mxGeometry x="320" y="560" width="40" height="40" as="geometry" />
        </mxCell>
        <mxCell id="pmLFDc_VPlstKLxGdKXN-32" value="" style="ellipse;whiteSpace=wrap;html=1;" vertex="1" parent="1">
          <mxGeometry x="480" y="560" width="40" height="40" as="geometry" />
        </mxCell>
        <mxCell id="pmLFDc_VPlstKLxGdKXN-33" value="" style="ellipse;whiteSpace=wrap;html=1;" vertex="1" parent="1">
          <mxGeometry x="280" y="640" width="40" height="40" as="geometry" />
        </mxCell>
        <mxCell id="pmLFDc_VPlstKLxGdKXN-34" value="" style="ellipse;whiteSpace=wrap;html=1;" vertex="1" parent="1">
          <mxGeometry x="360" y="640" width="40" height="40" as="geometry" />
        </mxCell>
        <mxCell id="pmLFDc_VPlstKLxGdKXN-35" value="" style="ellipse;whiteSpace=wrap;html=1;" vertex="1" parent="1">
          <mxGeometry x="440" y="640" width="40" height="40" as="geometry" />
        </mxCell>
        <mxCell id="pmLFDc_VPlstKLxGdKXN-36" value="" style="ellipse;whiteSpace=wrap;html=1;" vertex="1" parent="1">
          <mxGeometry x="440" y="730" width="40" height="40" as="geometry" />
        </mxCell>
        <mxCell id="pmLFDc_VPlstKLxGdKXN-38" value="" style="endArrow=classic;html=1;" edge="1" parent="1" target="pmLFDc_VPlstKLxGdKXN-31">
          <mxGeometry width="50" height="50" relative="1" as="geometry">
            <mxPoint x="420" y="520" as="sourcePoint" />
            <mxPoint x="510" y="560" as="targetPoint" />
          </mxGeometry>
        </mxCell>
        <mxCell id="pmLFDc_VPlstKLxGdKXN-39" value="" style="endArrow=classic;html=1;exitX=0.5;exitY=1;exitDx=0;exitDy=0;" edge="1" parent="1" source="pmLFDc_VPlstKLxGdKXN-30" target="pmLFDc_VPlstKLxGdKXN-32">
          <mxGeometry width="50" height="50" relative="1" as="geometry">
            <mxPoint x="415.85786437626894" y="524.1421356237311" as="sourcePoint" />
            <mxPoint x="364.14213562373106" y="575.8578643762689" as="targetPoint" />
          </mxGeometry>
        </mxCell>
        <mxCell id="pmLFDc_VPlstKLxGdKXN-40" value="" style="endArrow=classic;html=1;strokeColor=#000000;exitX=0.5;exitY=1;exitDx=0;exitDy=0;entryX=0.5;entryY=0;entryDx=0;entryDy=0;" edge="1" parent="1" source="pmLFDc_VPlstKLxGdKXN-31" target="pmLFDc_VPlstKLxGdKXN-33">
          <mxGeometry width="50" height="50" relative="1" as="geometry">
            <mxPoint x="460" y="610" as="sourcePoint" />
            <mxPoint x="510" y="560" as="targetPoint" />
          </mxGeometry>
        </mxCell>
        <mxCell id="pmLFDc_VPlstKLxGdKXN-41" value="" style="endArrow=classic;html=1;strokeColor=#000000;exitX=0.5;exitY=1;exitDx=0;exitDy=0;entryX=0.275;entryY=0;entryDx=0;entryDy=0;entryPerimeter=0;" edge="1" parent="1" source="pmLFDc_VPlstKLxGdKXN-31" target="pmLFDc_VPlstKLxGdKXN-34">
          <mxGeometry width="50" height="50" relative="1" as="geometry">
            <mxPoint x="460" y="610" as="sourcePoint" />
            <mxPoint x="510" y="560" as="targetPoint" />
          </mxGeometry>
        </mxCell>
        <mxCell id="pmLFDc_VPlstKLxGdKXN-42" value="" style="endArrow=classic;html=1;strokeColor=#000000;exitX=0.5;exitY=1;exitDx=0;exitDy=0;entryX=0.5;entryY=0;entryDx=0;entryDy=0;" edge="1" parent="1" source="pmLFDc_VPlstKLxGdKXN-32" target="pmLFDc_VPlstKLxGdKXN-35">
          <mxGeometry width="50" height="50" relative="1" as="geometry">
            <mxPoint x="460" y="630" as="sourcePoint" />
            <mxPoint x="510" y="580" as="targetPoint" />
          </mxGeometry>
        </mxCell>
        <mxCell id="pmLFDc_VPlstKLxGdKXN-43" value="" style="endArrow=classic;html=1;strokeColor=#000000;entryX=0.5;entryY=0;entryDx=0;entryDy=0;exitX=0.5;exitY=1;exitDx=0;exitDy=0;" edge="1" parent="1" source="pmLFDc_VPlstKLxGdKXN-35" target="pmLFDc_VPlstKLxGdKXN-36">
          <mxGeometry width="50" height="50" relative="1" as="geometry">
            <mxPoint x="460" y="630" as="sourcePoint" />
            <mxPoint x="510" y="580" as="targetPoint" />
          </mxGeometry>
        </mxCell>
        <mxCell id="pmLFDc_VPlstKLxGdKXN-44" value="" style="ellipse;whiteSpace=wrap;html=1;" vertex="1" parent="1">
          <mxGeometry x="240" y="720" width="40" height="40" as="geometry" />
        </mxCell>
        <mxCell id="pmLFDc_VPlstKLxGdKXN-45" value="" style="ellipse;whiteSpace=wrap;html=1;" vertex="1" parent="1">
          <mxGeometry x="320" y="720" width="40" height="40" as="geometry" />
        </mxCell>
        <mxCell id="pmLFDc_VPlstKLxGdKXN-46" value="" style="endArrow=classic;html=1;strokeColor=#000000;exitX=0.5;exitY=1;exitDx=0;exitDy=0;entryX=0.5;entryY=0;entryDx=0;entryDy=0;" edge="1" parent="1" source="pmLFDc_VPlstKLxGdKXN-33" target="pmLFDc_VPlstKLxGdKXN-44">
          <mxGeometry width="50" height="50" relative="1" as="geometry">
            <mxPoint x="460" y="630" as="sourcePoint" />
            <mxPoint x="510" y="580" as="targetPoint" />
          </mxGeometry>
        </mxCell>
        <mxCell id="pmLFDc_VPlstKLxGdKXN-47" value="" style="endArrow=classic;html=1;strokeColor=#000000;exitX=0.5;exitY=1;exitDx=0;exitDy=0;entryX=0.5;entryY=0;entryDx=0;entryDy=0;" edge="1" parent="1" source="pmLFDc_VPlstKLxGdKXN-33" target="pmLFDc_VPlstKLxGdKXN-45">
          <mxGeometry width="50" height="50" relative="1" as="geometry">
            <mxPoint x="460" y="630" as="sourcePoint" />
            <mxPoint x="510" y="580" as="targetPoint" />
          </mxGeometry>
        </mxCell>
        <mxCell id="pmLFDc_VPlstKLxGdKXN-48" value="" style="ellipse;whiteSpace=wrap;html=1;" vertex="1" parent="1">
          <mxGeometry x="520" y="640" width="40" height="40" as="geometry" />
        </mxCell>
        <mxCell id="pmLFDc_VPlstKLxGdKXN-49" value="" style="endArrow=classic;html=1;strokeColor=#000000;entryX=0.5;entryY=0;entryDx=0;entryDy=0;" edge="1" parent="1" target="pmLFDc_VPlstKLxGdKXN-48">
          <mxGeometry width="50" height="50" relative="1" as="geometry">
            <mxPoint x="500" y="600" as="sourcePoint" />
            <mxPoint x="510" y="580" as="targetPoint" />
          </mxGeometry>
        </mxCell>
        <mxCell id="pmLFDc_VPlstKLxGdKXN-50" value="" style="rounded=0;whiteSpace=wrap;html=1;strokeColor=#000000;strokeWidth=2;fillColor=none;dashed=1;" vertex="1" parent="1">
          <mxGeometry x="200" y="710" width="200" height="60" as="geometry" />
        </mxCell>
        <mxCell id="pmLFDc_VPlstKLxGdKXN-51" value="&lt;font style=&quot;font-size: 16px&quot;&gt;Two children and two max&lt;/font&gt;" style="text;html=1;fillColor=none;align=center;verticalAlign=middle;whiteSpace=wrap;rounded=0;dashed=1;strokeColor=#66B2FF;strokeWidth=2;" vertex="1" parent="1">
          <mxGeometry x="60" y="690" width="100" height="80" as="geometry" />
        </mxCell>
        <mxCell id="pmLFDc_VPlstKLxGdKXN-54" value="" style="endArrow=classic;html=1;dashed=1;strokeColor=#66B2FF;strokeWidth=2;entryX=0;entryY=0.25;entryDx=0;entryDy=0;exitX=0.99;exitY=0.425;exitDx=0;exitDy=0;exitPerimeter=0;" edge="1" parent="1" source="pmLFDc_VPlstKLxGdKXN-51" target="pmLFDc_VPlstKLxGdKXN-50">
          <mxGeometry width="50" height="50" relative="1" as="geometry">
            <mxPoint x="460" y="580" as="sourcePoint" />
            <mxPoint x="510" y="530" as="targetPoint" />
          </mxGeometry>
        </mxCell>
        <mxCell id="pmLFDc_VPlstKLxGdKXN-56" value="&lt;font style=&quot;font-size: 16px&quot;&gt;Pointer to &lt;br&gt;left child&lt;/font&gt;" style="rounded=0;whiteSpace=wrap;html=1;" vertex="1" parent="1">
          <mxGeometry x="630" y="555" width="100" height="50" as="geometry" />
        </mxCell>
        <mxCell id="pmLFDc_VPlstKLxGdKXN-60" value="&lt;font style=&quot;font-size: 16px&quot;&gt;data&lt;/font&gt;" style="rounded=0;whiteSpace=wrap;html=1;" vertex="1" parent="1">
          <mxGeometry x="730" y="555" width="60" height="50" as="geometry" />
        </mxCell>
        <mxCell id="pmLFDc_VPlstKLxGdKXN-61" value="&lt;font style=&quot;font-size: 16px&quot;&gt;Pointer to right child&lt;/font&gt;" style="rounded=0;whiteSpace=wrap;html=1;" vertex="1" parent="1">
          <mxGeometry x="790" y="555" width="100" height="50" as="geometry" />
        </mxCell>
        <mxCell id="pmLFDc_VPlstKLxGdKXN-62" value="&lt;font style=&quot;font-size: 14px&quot; color=&quot;#004c99&quot;&gt;Node contains&lt;/font&gt;" style="text;html=1;strokeColor=none;align=center;verticalAlign=middle;whiteSpace=wrap;rounded=0;dashed=1;" vertex="1" parent="1">
          <mxGeometry x="540" y="530" width="70" height="60" as="geometry" />
        </mxCell>
        <mxCell id="pmLFDc_VPlstKLxGdKXN-64" value="" style="endArrow=classic;html=1;dashed=1;strokeColor=#66B2FF;strokeWidth=2;exitX=1;exitY=0.5;exitDx=0;exitDy=0;entryX=0;entryY=0.5;entryDx=0;entryDy=0;" edge="1" parent="1" source="pmLFDc_VPlstKLxGdKXN-32" target="pmLFDc_VPlstKLxGdKXN-56">
          <mxGeometry width="50" height="50" relative="1" as="geometry">
            <mxPoint x="460" y="510" as="sourcePoint" />
            <mxPoint x="510" y="460" as="targetPoint" />
          </mxGeometry>
        </mxCell>
        <mxCell id="pmLFDc_VPlstKLxGdKXN-65" value="" style="rounded=0;whiteSpace=wrap;html=1;dashed=1;strokeColor=#000000;strokeWidth=2;fillColor=none;" vertex="1" parent="1">
          <mxGeometry x="40" y="40" width="880" height="760" as="geometry" />
        </mxCell>
      </root>
    </mxGraphModel>
  </diagram>
</mxfile>
